<svg width="97" height="36" viewBox="0 0 97 36" fill="none" xmlns="http://www.w3.org/2000/svg">
<g id="Group">
<path id="Vector" d="M78.4719 20.3965L82.053 26.7801L77.2263 35.4992H70.2199L78.4719 20.3965ZM96.8443 0H89.8379L85.0112 8.7191L88.5923 15.1027L96.8443 0ZM83.4543 11.366L79.7175 4.67095C78.1605 1.71268 75.0465 0 71.7769 0C68.5072 0 65.3933 1.86838 63.8363 4.67095L51.069 27.87C50.6019 28.8042 49.512 29.427 48.4222 29.427C47.3323 29.427 46.3981 28.8042 45.7753 27.87L33.008 4.67095C31.451 1.71268 28.3371 0 25.0674 0C21.7978 0 18.6838 1.86838 17.1268 4.67095L0 35.4992H7.16212L22.4205 7.62921C22.8876 6.69502 23.9775 6.07223 25.0674 6.07223C26.1573 6.07223 27.0915 6.69502 27.7143 7.62921L40.4815 30.8283C42.0385 33.7865 45.1525 35.4992 48.4222 35.4992C51.6918 35.4992 54.8058 33.6308 56.3628 30.8283L69.13 7.62921C69.5971 6.69502 70.687 6.07223 71.7769 6.07223C72.8668 6.07223 73.801 6.69502 74.4238 7.62921L80.0289 17.7496L83.6099 24.1332L89.9936 35.4992H97L87.0353 17.7496L83.4543 11.366Z" fill="url(#paint0_linear_1_12)"/>
</g>
<defs>
<linearGradient id="paint0_linear_1_12" x1="0.0138571" y1="17.7496" x2="96.8304" y2="17.7496" gradientUnits="userSpaceOnUse">
<stop stop-color="#4B00FF"/>
<stop offset="0.999" stop-color="#ED4137"/>
</linearGradient>
</defs>
</svg>
