<svg xmlns="http://www.w3.org/2000/svg" width="32" height="32" viewBox="0 0 32 32" fill="none">
  <g clip-path="url(#clip0_6_4404)">
    <path d="M32 2.8125C32 1.25919 30.7408 0 29.1875 0H2.8125C1.25919 0 0 1.25919 0 2.8125V8.4375L0.625 9.0625H31.375C31.6191 8.81844 31.7559 8.68156 32 8.4375V2.8125Z" fill="#0052C2"/>
    <path d="M32 2.8125V8.4375C31.7556 8.68188 31.6194 8.81812 31.375 9.0625H16V0H29.1875C30.7406 0 32 1.25937 32 2.8125Z" fill="#003481"/>
    <path d="M27.25 3.75H21.625C21.1072 3.75 20.6875 4.16975 20.6875 4.6875C20.6875 5.20525 21.1072 5.625 21.625 5.625H27.25C27.7677 5.625 28.1875 5.20525 28.1875 4.6875C28.1875 4.16975 27.7677 3.75 27.25 3.75Z" fill="#0052C2"/>
    <path d="M12.25 5.625C12.7678 5.625 13.1875 5.20527 13.1875 4.6875C13.1875 4.16973 12.7678 3.75 12.25 3.75C11.7322 3.75 11.3125 4.16973 11.3125 4.6875C11.3125 5.20527 11.7322 5.625 12.25 5.625Z" fill="#F03800"/>
    <path d="M8.5 5.625C9.01777 5.625 9.4375 5.20527 9.4375 4.6875C9.4375 4.16973 9.01777 3.75 8.5 3.75C7.98223 3.75 7.5625 4.16973 7.5625 4.6875C7.5625 5.20527 7.98223 5.625 8.5 5.625Z" fill="#FDBF00"/>
    <path d="M4.75 5.625C5.26777 5.625 5.6875 5.20527 5.6875 4.6875C5.6875 4.16973 5.26777 3.75 4.75 3.75C4.23223 3.75 3.8125 4.16973 3.8125 4.6875C3.8125 5.20527 4.23223 5.625 4.75 5.625Z" fill="#37D742"/>
    <path d="M0 8.4375V27.3125C0 28.8633 1.26169 30.125 2.8125 30.125H29.1875C30.7383 30.125 32 28.8633 32 27.3125V8.4375H0Z" fill="#E0F4FF"/>
    <path d="M32 8.4375V27.3125C32 28.8631 30.7381 30.125 29.1875 30.125H16V8.4375H32Z" fill="#B8E0F5"/>
    <path d="M10.6023 11.2781C10.1 11.1526 9.59103 11.4579 9.46546 11.9602L9.04196 13.6542L8.34253 12.6051C7.97165 12.0488 7.15303 12.0492 6.7824 12.6051L6.08296 13.6542L5.65946 11.9602C5.5339 11.4579 5.02478 11.1521 4.52259 11.2781C4.02028 11.4037 3.7149 11.9127 3.84046 12.4149L4.77796 16.1649C4.86796 16.525 5.16184 16.798 5.52746 16.8614C5.89315 16.9244 6.26165 16.7663 6.46753 16.4576L7.56246 14.8152L8.6574 16.4576C8.86115 16.7632 9.22746 16.9251 9.59746 16.8614C9.96309 16.798 10.257 16.525 10.347 16.1649L11.2845 12.4149C11.4101 11.9127 11.1047 11.4037 10.6023 11.2781Z" fill="#00B8F0"/>
    <path d="M19.0398 11.2781C18.5375 11.1526 18.0285 11.4579 17.903 11.9602L17.4795 13.6542L16.78 12.6051C16.4092 12.0488 15.5905 12.0492 15.2199 12.6051L14.5205 13.6542L14.097 11.9602C13.9713 11.4579 13.4624 11.1521 12.9601 11.2781C12.4578 11.4037 12.1524 11.9127 12.278 12.4149L13.2155 16.1649C13.3055 16.525 13.5993 16.798 13.965 16.8614C14.3306 16.9244 14.6992 16.7663 14.905 16.4576L16 14.8152L17.0949 16.4576C17.2987 16.7632 17.665 16.9251 18.035 16.8614C18.4006 16.798 18.6945 16.525 18.7845 16.1649L19.722 12.4149C19.8476 11.9127 19.5422 11.4037 19.0398 11.2781Z" fill="#00B8F0"/>
    <path d="M19.7219 12.4151L18.7844 16.1651C18.6944 16.5251 18.4006 16.7982 18.035 16.8613C17.665 16.9251 17.2987 16.7632 17.095 16.4576L16 14.8151V12.1882C16.2975 12.1882 16.595 12.327 16.78 12.6051L17.4794 13.6545L17.9031 11.9601C18.0288 11.4582 18.5375 11.1526 19.04 11.2782C19.5419 11.4038 19.8475 11.9126 19.7219 12.4151Z" fill="#0097F0"/>
    <path d="M27.4773 11.2781C26.975 11.1526 26.466 11.4579 26.3405 11.9602L25.917 13.6542L25.2175 12.6051C25.0437 12.3443 24.7509 12.1876 24.4375 12.1876C24.124 12.1876 23.8313 12.3443 23.6574 12.6051L22.958 13.6542L22.5345 11.9602C22.4089 11.4579 21.8998 11.1521 21.3976 11.2781C20.8953 11.4037 20.5899 11.9127 20.7155 12.4149L21.653 16.1649C21.743 16.525 22.0368 16.798 22.4025 16.8614C22.768 16.9244 23.1367 16.7663 23.3425 16.4576L24.4375 14.8152L25.5324 16.4576C25.7082 16.7212 26.0025 16.8752 26.3123 16.8752C26.7413 16.8752 27.1174 16.5835 27.222 16.165L28.1595 12.415C28.2851 11.9127 27.9797 11.4037 27.4773 11.2781Z" fill="#0097F0"/>
    <path d="M16 32C19.6244 32 22.5625 29.0619 22.5625 25.4375C22.5625 21.8131 19.6244 18.875 16 18.875C12.3756 18.875 9.4375 21.8131 9.4375 25.4375C9.4375 29.0619 12.3756 32 16 32Z" fill="#37D742"/>
    <path d="M22.5625 25.4375C22.5625 29.0562 19.6188 32 16 32V18.875C19.6188 18.875 22.5625 21.8187 22.5625 25.4375Z" fill="#16A659"/>
    <path d="M18.9129 23.837C18.5468 23.471 17.9532 23.471 17.5871 23.837L15.25 26.1741L14.3504 25.2745C13.9843 24.9084 13.3907 24.9084 13.0246 25.2745C12.6585 25.6405 12.6585 26.2342 13.0246 26.6003L14.5871 28.1628C14.7702 28.3459 15.0101 28.4374 15.25 28.4374C15.49 28.4374 15.7299 28.3459 15.9129 28.1628L18.9129 25.1628C19.279 24.7967 19.279 24.2031 18.9129 23.837Z" fill="#E0F4FF"/>
    <path d="M18.9131 25.1632L16 28.0763V25.4245L17.5869 23.837C17.9531 23.4713 18.5469 23.4713 18.9131 23.837C19.2787 24.2032 19.2787 24.797 18.9131 25.1632Z" fill="#B8E0F5"/>
  </g>
  <defs>
    <clipPath id="clip0_6_4404">
      <rect width="32" height="32" fill="white"/>
    </clipPath>
  </defs>
</svg>