<svg xmlns="http://www.w3.org/2000/svg" width="32" height="32" viewBox="0 0 32 32" fill="none">
  <g clip-path="url(#clip0_6_4421)">
    <path d="M12.25 10.6001C11.9314 10.6001 11.5938 10.6001 11.2561 10.6375H11.2C5.05005 11.2188 0 17.0564 0 23.5625C0 31.1189 7.0188 32 12.25 32C17.4438 32 23.5 31.2126 24.3438 25.0063C25.2249 17.7312 19.45 10.6001 12.25 10.6001Z" fill="#FF637B"/>
    <path d="M24.3438 25.0063C23.5 31.2126 17.4438 32 12.25 32V10.6001C19.45 10.6001 25.2249 17.7312 24.3438 25.0063Z" fill="#E63950"/>
    <path d="M18.7561 3.11255L16.8811 8.80005H7.61888L5.74388 3.11255C5.63109 2.8313 5.68749 2.51245 5.85619 2.2688C6.04369 2.02515 6.32494 1.875 6.62499 1.875H9.60619C9.98119 0.787354 11.0312 0 12.25 0C13.4687 0 14.5 0.787354 14.8938 1.875H17.875C18.175 1.875 18.4563 2.02515 18.6438 2.2688C18.8125 2.51245 18.8689 2.8313 18.7561 3.11255Z" fill="#FF637B"/>
    <path d="M18.7561 3.11255L16.8811 8.80005H12.25V0C13.4688 0 14.5 0.787354 14.8938 1.875H17.875C18.175 1.875 18.4563 2.02515 18.6438 2.2688C18.8125 2.51245 18.8689 2.8313 18.7561 3.11255Z" fill="#E63950"/>
    <path d="M15.0437 23.8438C15.0437 25.0625 14.2751 26.075 13.1875 26.4688V27.3125C13.1875 27.8376 12.7751 28.25 12.25 28.25C11.7249 28.25 11.3125 27.8376 11.3125 27.3125V26.4875C10.2249 26.0938 9.4187 25.0625 9.4187 23.8438C9.4187 23.3188 9.84985 22.9062 10.3562 22.9062C10.8813 22.9062 11.2937 23.3188 11.2937 23.8438C11.2937 24.3501 11.7249 24.7812 12.2312 24.7812H12.25C12.7751 24.7625 13.1687 24.3501 13.1687 23.8438C13.1687 23.3188 12.7751 22.925 12.25 22.9062H12.2312C10.6938 22.9062 9.4187 21.6311 9.4187 20.0938C9.4187 18.8562 10.2251 17.825 11.3125 17.45V16.0625C11.3125 15.5374 11.7249 15.125 12.25 15.125C12.7751 15.125 13.1875 15.5374 13.1875 16.0625V17.45C14.2751 17.8438 15.0437 18.875 15.0437 20.0938C15.0437 20.6001 14.6313 21.0312 14.1062 21.0312C13.5999 21.0312 13.1687 20.6001 13.1687 20.0938C13.1687 19.5688 12.7751 19.175 12.25 19.1562H12.2312C11.7249 19.1562 11.2937 19.5688 11.2937 20.0938C11.2937 20.6001 11.7249 21.0312 12.2312 21.0312H12.25C13.8064 21.05 15.0437 22.2876 15.0437 23.8438Z" fill="#FFDA2D"/>
    <path d="M32 18.875C32 19.9062 31.1562 20.75 30.125 20.75L25.375 22.625L20.6875 20.75C19.6562 20.75 18.8125 19.9062 18.8125 18.875C18.8125 17.8438 19.6562 17 20.6875 17H30.125C31.1562 17 32 17.8438 32 18.875Z" fill="#FFDA2D"/>
    <path d="M32 18.875C32 19.9062 31.1563 20.75 30.125 20.75L25.375 22.625V17H30.125C31.1563 17 32 17.8438 32 18.875Z" fill="#FDBF00"/>
    <path d="M32 22.625C32 23.6562 31.1562 24.5 30.125 24.5L25.375 26.375L20.6875 24.5C19.6562 24.5 18.8125 23.6562 18.8125 22.625C18.8125 21.5938 19.6562 20.75 20.6875 20.75H30.125C31.1562 20.75 32 21.5938 32 22.625Z" fill="#FDBF00"/>
    <path d="M32 22.625C32 23.6562 31.1563 24.5 30.125 24.5L25.375 26.375V20.75H30.125C31.1563 20.75 32 21.5938 32 22.625Z" fill="#FF9100"/>
    <path d="M32 26.375C32 27.4062 31.1562 28.25 30.125 28.25L25.375 30.125L20.6875 28.25C19.6562 28.25 18.8125 27.4062 18.8125 26.375C18.8125 25.3438 19.6562 24.5 20.6875 24.5H30.125C31.1562 24.5 32 25.3438 32 26.375Z" fill="#FFDA2D"/>
    <path d="M32 26.375C32 27.4062 31.1563 28.25 30.125 28.25L25.375 30.125V24.5H30.125C31.1563 24.5 32 25.3438 32 26.375Z" fill="#FDBF00"/>
    <path d="M32 30.125C32 31.1562 31.1562 32 30.125 32H20.6875C19.6562 32 18.8125 31.1562 18.8125 30.125C18.8125 29.0938 19.6562 28.25 20.6875 28.25H30.125C31.1562 28.25 32 29.0938 32 30.125Z" fill="#FDBF00"/>
    <path d="M32 30.125C32 31.1562 31.1563 32 30.125 32H25.375V28.25H30.125C31.1563 28.25 32 29.0938 32 30.125Z" fill="#FF9100"/>
    <path d="M18.8125 9.4375C18.8125 10.4688 17.9688 11.3125 16.9375 11.3125H7.5625C6.53125 11.3125 5.6875 10.4688 5.6875 9.4375C5.6875 8.40625 6.53125 7.5625 7.5625 7.5625H16.9375C17.9688 7.5625 18.8125 8.40625 18.8125 9.4375Z" fill="#FFDA2D"/>
    <path d="M15.0437 23.8438C15.0437 25.0625 14.2751 26.075 13.1875 26.4688V27.3125C13.1875 27.8376 12.7751 28.25 12.25 28.25V24.7812C12.7751 24.7625 13.1687 24.3501 13.1687 23.8438C13.1687 23.3188 12.7751 22.925 12.25 22.9062V21.0312C13.8064 21.05 15.0437 22.2876 15.0437 23.8438Z" fill="#FDBF00"/>
    <path d="M15.0437 20.0938C15.0437 20.6001 14.6313 21.0312 14.1062 21.0312C13.5999 21.0312 13.1687 20.6001 13.1687 20.0938C13.1687 19.5688 12.7751 19.175 12.25 19.1562V15.125C12.7751 15.125 13.1875 15.5374 13.1875 16.0625V17.45C14.2751 17.8438 15.0437 18.875 15.0437 20.0938Z" fill="#FDBF00"/>
    <path d="M18.8125 9.4375C18.8125 10.4688 17.9688 11.3125 16.9375 11.3125H12.25V7.5625H16.9375C17.9688 7.5625 18.8125 8.40625 18.8125 9.4375Z" fill="#FDBF00"/>
  </g>
  <defs>
    <clipPath id="clip0_6_4421">
      <rect width="32" height="32" fill="white"/>
    </clipPath>
  </defs>
</svg>