<svg xmlns="http://www.w3.org/2000/svg" width="32" height="32" viewBox="0 0 32 32" fill="none">
  <g clip-path="url(#clip0_6_4454)">
    <path d="M31.0624 16C31.0624 7.68119 24.3188 0.9375 15.9999 0.9375L15.3749 16L15.9999 31.0625C24.3188 31.0625 31.0624 24.3188 31.0624 16Z" fill="#F7A920"/>
    <path d="M16 0.9375C7.68119 0.9375 0.9375 7.68119 0.9375 16C0.9375 24.3188 7.68119 31.0625 16 31.0625V0.9375Z" fill="#FFC036"/>
    <path d="M31.9999 16C31.9999 11.7262 30.3356 7.70825 27.3137 4.68625C24.2916 1.66431 20.2737 0 15.9999 0L15.3749 0.895813L15.9999 1.875C19.7729 1.875 23.3199 3.34425 25.9878 6.01213C28.6557 8.68 30.1249 12.2271 30.1249 16C30.1249 19.7729 28.6557 23.32 25.9878 25.9879C23.3199 28.6558 19.7729 30.125 15.9999 30.125L15.3749 31.0833L15.9999 32C20.2737 32 24.2916 30.3357 27.3136 27.3137C30.3356 24.2917 31.9999 20.2738 31.9999 16Z" fill="#FFD987"/>
    <path d="M16 30.125C12.2271 30.125 8.68 28.6558 6.01213 25.9879C3.34425 23.3201 1.875 19.7729 1.875 16C1.875 12.2271 3.34425 8.67994 6.01213 6.01213C8.68 3.34425 12.2271 1.875 16 1.875V0C11.7262 0 7.70831 1.66431 4.68631 4.68625C1.66431 7.70825 0 11.7262 0 16C0 20.2738 1.66425 24.2917 4.68625 27.3137C7.70831 30.3357 11.7262 32 16 32V30.125Z" fill="#F9E89C"/>
    <path d="M22.3768 14.1821V14.8529C21.7289 14.4294 20.9559 14.1821 20.1258 14.1821C17.8508 14.1821 15.9999 16.033 15.9999 18.3081C15.9999 18.665 16.0455 19.0114 16.1311 19.3419C16.0883 19.3891 16.0446 19.4355 15.9999 19.4804L15.3749 20.7188L15.9999 21.7829C16.3777 21.5852 16.7309 21.3439 17.0551 21.0601C17.811 21.9028 18.9074 22.4341 20.1259 22.4341C20.9559 22.4341 21.729 22.1868 22.3769 21.7633V22.4341H24.2519V14.1821H22.3768ZM20.1259 20.5591C18.8848 20.5591 17.8749 19.5493 17.8749 18.3081C17.8749 17.0669 18.8847 16.0571 20.1259 16.0571C21.3671 16.0571 22.3769 17.0669 22.3769 18.3081C22.3769 19.5493 21.3671 20.5591 20.1259 20.5591Z" fill="#F7F0EB"/>
    <path d="M16.0011 11.5331L17.0508 9.97951C16.7161 9.75344 16.3644 9.55982 16.0001 9.39819L15.375 10.4656L16 11.5324C16.0004 11.5327 16.0007 11.5329 16.0011 11.5331Z" fill="#F7F0EB"/>
    <path d="M15.842 19.6306C15.1503 20.2467 14.2758 20.559 13.243 20.559C10.5224 20.559 8.30896 18.3457 8.30896 15.625C8.30896 12.9043 10.5224 10.6909 13.243 10.6909C14.2315 10.6909 15.1848 10.9819 16 11.5324V9.39811C15.1375 9.01554 14.2022 8.81592 13.243 8.81592C9.48852 8.81592 6.43396 11.8705 6.43396 15.625C6.43396 19.3795 9.48852 22.434 13.243 22.434C14.2481 22.434 15.1817 22.2111 16 21.7829V19.4804C15.9483 19.5322 15.8958 19.5827 15.842 19.6306Z" fill="#FFFBF5"/>
  </g>
  <defs>
    <clipPath id="clip0_6_4454">
      <rect width="32" height="32" fill="white"/>
    </clipPath>
  </defs>
</svg>