<svg xmlns="http://www.w3.org/2000/svg" width="66" height="66" viewBox="0 0 66 66" fill="none">
  <path d="M62.2951 9.95324V31.1463C62.2951 36.3917 59.8909 42.4801 55.5272 48.2902C50.4417 55.0593 42.9506 61.0343 33.8637 65.5694L33 66L32.1363 65.5694C23.0493 61.0343 15.5583 55.0593 10.4727 48.2902C6.10909 42.4801 3.7049 36.3917 3.7049 31.1463V9.95324L17.9573 0H48.0426L62.2951 9.95324Z" fill="#690CDB"/>
  <path d="M62.2951 9.95324V31.1463C62.2951 36.3917 59.8909 42.4801 55.5272 48.2902C50.4417 55.0593 42.9507 61.0343 33.8637 65.5694L33 66V0H48.0427L62.2951 9.95324Z" fill="#480D8F"/>
  <path d="M45.6088 7.73486H20.3912L11.4396 13.9858V31.1464C11.4396 37.0441 17.2419 48.5688 33 57.2871C48.7581 48.5688 54.5604 37.0441 54.5604 31.1464V13.9858L45.6088 7.73486Z" fill="#985FDF"/>
  <path d="M54.5604 13.9858V31.1464C54.5604 37.0441 48.7581 48.5688 33 57.2871V7.73486H45.6088L54.5604 13.9858Z" fill="#6B449B"/>
  <path d="M38.3885 17.2238C37.0079 15.8432 35.1013 14.9885 33 14.9885C30.9697 14.9885 29.0566 15.7839 27.6141 17.2264C26.1716 18.6689 25.3762 20.582 25.3762 22.6123V27.8448H40.6238V22.6123C40.6238 20.5098 39.7691 18.6045 38.3885 17.2238ZM36.7565 25.4381H29.2435V22.6123C29.2435 21.6159 29.6367 20.6735 30.3483 19.9606C30.7054 19.6048 31.1179 19.329 31.5678 19.1408C32.0164 18.9538 32.5011 18.8559 33 18.8559C35.0716 18.8559 36.7565 20.5407 36.7565 22.6123V25.4381Z" fill="#FFB528"/>
  <path d="M40.6238 22.6123V27.8448H33V25.4381H36.7565V22.6123C36.7565 20.5407 35.0716 18.8559 33 18.8559V14.9885C35.1013 14.9885 37.0079 15.8432 38.3885 17.2238C39.7691 18.6045 40.6238 20.5098 40.6238 22.6123Z" fill="#FE8C01"/>
  <path d="M22.3919 23.9775H43.6082V40.6496H22.3919V23.9775Z" fill="#FEE158"/>
  <path d="M33 23.9775H43.6081V40.6496H33V23.9775Z" fill="#FFB528"/>
  <path d="M46.2173 5.80103H19.7827L9.50592 12.9775V31.1463C9.50592 34.9182 11.4164 39.7111 14.7462 44.2952C18.8004 49.8771 24.7884 54.9549 32.0641 58.9795L33 59.4977L33.9359 58.9795C41.2117 54.9549 47.1996 49.8771 51.2538 44.2952C54.5836 39.7111 56.4941 34.9182 56.4941 31.1463V12.9775L46.2173 5.80103ZM52.6268 31.1463C52.6268 36.2911 47.3788 46.7961 33 55.0671C18.6212 46.7961 13.3733 36.2911 13.3733 31.1463V14.9937L20.9997 9.66836H45.0004L52.6268 14.9937V31.1463Z" fill="#EFF5FA"/>
  <path d="M56.4941 12.9775V31.1463C56.4941 34.9182 54.5836 39.7111 51.2538 44.2952C47.1996 49.8771 41.2116 54.9549 33.9359 58.9795L33 59.4977V55.0671C47.3788 46.7961 52.6267 36.2911 52.6267 31.1463V14.9937L45.0003 9.66836H33V5.80103H46.2173L56.4941 12.9775Z" fill="#C6E1EC"/>
  <path d="M31.0663 30.3149H34.9337V34.3125H31.0663V30.3149Z" fill="#FFB528"/>
  <path d="M33 30.3149H34.9337V34.3125H33V30.3149Z" fill="#FE8C01"/>
</svg>