<svg xmlns="http://www.w3.org/2000/svg" width="32" height="32" viewBox="0 0 32 32" fill="none">
  <g clip-path="url(#clip0_6_4440)">
    <path d="M19 4H3.66667C1.64 4 0 5.64 0 7.66667V24.3333C0 26.36 1.64 28 3.66667 28H13.5067L13.8 26.36C13.9347 25.6133 14.28 24.9467 14.8147 24.4L16.548 22.6667H5C4.45333 22.6667 4 22.2133 4 21.6667C4 21.12 4.45333 20.6667 5 20.6667H17.6667C17.9067 20.6667 18.1333 20.76 18.3067 20.9067L22.6667 16.56V7.66667C22.6667 5.64 21.0267 4 19 4ZM17.6667 18.3333H5C4.45333 18.3333 4 17.88 4 17.3333C4 16.7867 4.45333 16.3333 5 16.3333H17.6667C18.2133 16.3333 18.6667 16.7867 18.6667 17.3333C18.6667 17.88 18.2133 18.3333 17.6667 18.3333ZM17.6667 14H5C4.45333 14 4 13.5467 4 13C4 12.4533 4.45333 12 5 12H17.6667C18.2133 12 18.6667 12.4533 18.6667 13C18.6667 13.5467 18.2133 14 17.6667 14Z" fill="#2196F3"/>
    <path d="M16.3334 2.66667H14.8667C14.4267 1.13333 13.0134 0 11.3334 0C9.65337 0 8.24004 1.13333 7.80004 2.66667H6.33337C5.78671 2.66667 5.33337 3.12 5.33337 3.66667V6.33333C5.33337 7.61333 6.38671 8.66667 7.66671 8.66667H15C16.28 8.66667 17.3334 7.61333 17.3334 6.33333V3.66667C17.3334 3.12 16.88 2.66667 16.3334 2.66667Z" fill="#1976D2"/>
    <path d="M18.6667 13C18.6667 13.5467 18.2133 14 17.6667 14H5C4.45333 14 4 13.5467 4 13C4 12.4533 4.45333 12 5 12H17.6667C18.2133 12 18.6667 12.4533 18.6667 13Z" fill="white"/>
    <path d="M18.6667 17.3333C18.6667 17.8799 18.2133 18.3333 17.6667 18.3333H5C4.45333 18.3333 4 17.8799 4 17.3333C4 16.7866 4.45333 16.3333 5 16.3333H17.6667C18.2133 16.3333 18.6667 16.7866 18.6667 17.3333Z" fill="white"/>
    <path d="M18.3067 20.9067L16.5467 22.6667H5C4.45333 22.6667 4 22.2134 4 21.6667C4 21.1201 4.45333 20.6667 5 20.6667H17.6667C17.9067 20.6667 18.1333 20.7601 18.3067 20.9067Z" fill="white"/>
    <path d="M5.33333 4H3.66667C1.64 4 0 5.64 0 7.66667V24.3333C0 26.36 1.64 28 3.66667 28H11.3333V22.6667H5C4.45333 22.6667 4 22.2133 4 21.6667C4 21.12 4.45333 20.6667 5 20.6667H11.3333V18.3333H5C4.45333 18.3333 4 17.88 4 17.3333C4 16.7867 4.45333 16.3333 5 16.3333H11.3333V14H5C4.45333 14 4 13.5467 4 13C4 12.4533 4.45333 12 5 12H11.3333V8.66667H7.66667C6.38667 8.66667 5.33333 7.61333 5.33333 6.33333V4Z" fill="#1D83D4"/>
    <path d="M11.3334 0C9.65337 0 8.24004 1.13333 7.80004 2.66667H6.33337C5.78671 2.66667 5.33337 3.12 5.33337 3.66667V4V6.33333C5.33337 7.61333 6.38671 8.66667 7.66671 8.66667H11.3334V0Z" fill="#1667B7"/>
    <path d="M11.3333 12H5C4.45333 12 4 12.4533 4 13C4 13.5467 4.45333 14 5 14H11.3333V12Z" fill="#DEDEDE"/>
    <path d="M11.3333 16.3333H5C4.45333 16.3333 4 16.7866 4 17.3333C4 17.8799 4.45333 18.3333 5 18.3333H11.3333V16.3333Z" fill="#DEDEDE"/>
    <path d="M11.3333 20.6667H5C4.45333 20.6667 4 21.1201 4 21.6667C4 22.2134 4.45333 22.6667 5 22.6667H11.3333V20.6667Z" fill="#DEDEDE"/>
    <path d="M16.7026 31.9999C16.4399 31.9999 16.1839 31.8959 15.9959 31.7066C15.7653 31.4759 15.6613 31.1479 15.7186 30.8252L16.4253 26.8186C16.4599 26.6172 16.5586 26.4306 16.7026 26.2866L26.6026 16.3866C27.8186 15.1692 29.0133 15.4972 29.6666 16.1506L31.3159 17.7999C32.2266 18.7106 32.2266 20.1892 31.3159 21.0999L21.4159 30.9999C21.2719 31.1452 21.0853 31.2426 20.8826 31.2786L16.8759 31.9839L16.7026 31.9999Z" fill="#FFC107"/>
    <path d="M28.3066 15.5667C27.7839 15.5667 27.1959 15.7933 26.6026 16.3867L16.7026 26.2867C16.5586 26.4307 16.4599 26.6173 16.4253 26.8187L15.7186 30.8253C15.6613 31.148 15.7653 31.476 15.9959 31.7067C16.0066 31.7173 16.0159 31.7267 16.0266 31.736L30.6386 17.1227L29.6653 16.1493C29.3319 15.816 28.8546 15.5667 28.3066 15.5667Z" fill="#DEA806"/>
  </g>
  <defs>
    <clipPath id="clip0_6_4440">
      <rect width="32" height="32" fill="white"/>
    </clipPath>
  </defs>
</svg>